
TechInfo:
Fletch.Lives.1989.720p.HDTV.DD2.0.x264-Fizo

RELEASE NAME..: Fletch.Lives.1989.720p.HDTV.DD2.0.x264-Fizo
RELEASE SIZE..: 4.18 GiB
VIDEO CODEC…: x264, CRF , L4.1 
FRAMERATE…..: 23.976 fps
BITRATE…….: 5,670 Kbps
RESOLUTION….: 1280×716
AUDIO………: English DD 2.0 @ 384 Kbps
SUBTITLES…..: English
SOURCE……..: Fletch.Lives.1989.1080i.HDTV.DD2.0.MPEG2-CtrlHD.ts

######################################################################################################################################################################

General
Unique ID                      : 174097505822740244637946105854204144760 (0x82F9F5C0A40893F2BE188D1B48156C78)
Complete name                  : C:Fletch.Lives.1989.720p.HDTV.DD2.0.x264-Fizo.mkv
Format                         : Matroska
Format version                 : Version 2
File size                      : 4.09 GiB
Duration                       : 1h 34mn
Overall bit rate               : 6 177 Kbps
Encoded date                   : UTC 2012-04-15 21:26:39
Writing application            : mkvmerge v5.2.1 ('A Far Off Place') built on Jan  2 2012 23:21:10
Writing library                : libebml v1.2.3 + libmatroska v1.3.0

Video
ID                             : 1
Format                         : AVC
Format/Info                    : Advanced Video Codec
Format profile                 : High@L4.1
Format settings, CABAC         : Yes
Format settings, ReFrames      : 9 frames
Codec ID                       : V_MPEG4/ISO/AVC
Duration                       : 1h 34mn
Bit rate                       : 5 670 Kbps
Width                          : 1 280 pixels
Height                         : 716 pixels
Display aspect ratio           : 16:9
Frame rate                     : 23.976 fps
Color space                    : YUV
Chroma subsampling             : 4:2:0
Bit depth                      : 8 bits
Scan type                      : Progressive
Bits/(Pixel*Frame)             : 0.258
Stream size                    : 3.76 GiB (92%)
Writing library                : x264 core 120 r2164 da19765
Encoding settings              : cabac=1 / ref=9 / deblock=1:-2:-2 / analyse=0x3:0x133 / me=umh / subme=10 / psy=1 / psy_rd=1.10:0.10 / mixed_ref=1 / me_range=32 / chroma_me=1 / trellis=2 / 8x8dct=1 / cqm=0 / deadzone=6,6 / fast_pskip=1 / chroma_qp_offset=-6 / threads=6 / sliced_threads=0 / nr=0 / decimate=0 / interlaced=0 / bluray_compat=0 / constrained_intra=0 / bframes=8 / b_pyramid=2 / b_adapt=2 / b_bias=0 / direct=3 / weightb=1 / open_gop=0 / weightp=2 / keyint=240 / keyint_min=22 / scenecut=40 / intra_refresh=0 / rc=crf / mbtree=0 / crf=18.0 / qcomp=0.80 / qpmin=0 / qpmax=69 / qpstep=4 / ip_ratio=1.10 / pb_ratio=1.10 / aq=2:0.80
Language                       : English

Audio
ID                             : 2
Format                         : AC-3
Format/Info                    : Audio Coding 3
Mode extension                 : CM (complete main)
Codec ID                       : A_AC3
Duration                       : 1h 34mn
Bit rate mode                  : Constant
Bit rate                       : 384 Kbps
Channel(s)                     : 2 channels
Channel positions              : Front: L R
Sampling rate                  : 48.0 KHz
Bit depth                      : 16 bits
Compression mode               : Lossy
Delay relative to video        : 28ms
Stream size                    : 260 MiB (6%)
Language                       : English

Text
ID                             : 3
Format                         : UTF-8
Codec ID                       : S_TEXT/UTF8
Codec ID/Info                  : UTF-8 Plain Text